<svg width="64" height="50" viewBox="0 0 64 50" fill="none" xmlns="http://www.w3.org/2000/svg">
<g id="Group">
<g id="Group_2">
<g id="Group_3">
<path id="Vector" d="M0 41.7166H2.43821C2.83901 41.7166 3.17301 41.7834 3.44021 41.8836C3.94122 42.1174 4.17502 42.5182 4.17502 43.1528C4.17502 43.4868 4.10822 43.7206 3.97462 43.9544C3.84102 44.1548 3.64061 44.3218 3.40681 44.4554C3.60721 44.5556 3.77422 44.6558 3.87442 44.7894C3.97462 44.923 4.04142 45.1568 4.04142 45.4574L4.07482 46.1588C4.07482 46.3592 4.10822 46.5262 4.14162 46.6264C4.17502 46.7934 4.27522 46.8936 4.37542 46.9604V47.094H3.47361C3.44021 47.0606 3.44021 46.9938 3.40681 46.927C3.40681 46.8602 3.37341 46.7266 3.37341 46.4928L3.34001 45.591C3.34001 45.257 3.20641 45.0232 2.97261 44.8896C2.83901 44.8228 2.63861 44.7894 2.33801 44.7894H0.734803V47.094H0V41.7166ZM2.33801 44.1548C2.67201 44.1548 2.93921 44.088 3.10621 43.9544C3.30661 43.8208 3.40681 43.587 3.40681 43.2196C3.40681 42.8522 3.27321 42.585 3.00601 42.4514C2.87241 42.3846 2.67201 42.3512 2.43821 42.3512H0.701403V44.1882H2.33801V44.1548Z" fill="#AC1931"/>
<path id="Vector_2" d="M6.01202 41.7166H6.74682V47.0606H6.01202V41.7166Z" fill="#AC1931"/>
<path id="Vector_3" d="M8.48364 41.7166H9.21844V46.426H11.8905V47.0606H8.48364V41.7166Z" fill="#AC1931"/>
<path id="Vector_4" d="M13.2598 41.7166H17.1343V42.3846H13.9613V44.0212H16.9005V44.6558H13.9613V46.4594H17.2011V47.094H13.2598V41.7166Z" fill="#AC1931"/>
<path id="Vector_5" d="M18.3033 41.7166H19.1383L20.6747 44.2884L22.2111 41.7166H23.0795L21.0421 44.923V47.094H20.3073V44.923L18.3033 41.7166Z" fill="#AC1931"/>
<path id="Vector_6" d="M27.2879 43.4537C27.2211 43.2867 27.1877 43.1197 27.1877 42.9527C27.1877 42.6186 27.2879 42.318 27.5217 42.0842C27.7555 41.8504 28.0561 41.7502 28.4569 41.7502C28.8243 41.7502 29.1249 41.8504 29.3253 42.0508C29.5257 42.2512 29.6259 42.5184 29.6259 42.819C29.6259 43.153 29.5257 43.4536 29.2919 43.7208C29.1583 43.8879 28.9579 44.0549 28.6573 44.2553L29.6259 45.4243C29.6927 45.2239 29.7261 45.0903 29.7595 44.9901C29.7929 44.8899 29.8263 44.7563 29.8263 44.5893H30.4609C30.4275 44.9233 30.3273 45.2573 30.2271 45.5579C30.0935 45.8585 30.0267 45.9921 30.0267 45.9253L30.9619 47.0943H30.1269L29.6259 46.4931C29.4255 46.6935 29.2585 46.8605 29.0915 46.9607C28.7909 47.1277 28.4569 47.2279 28.0895 47.2279C27.5217 47.2279 27.1209 47.0943 26.8871 46.7937C26.6199 46.4931 26.5197 46.1591 26.5197 45.7917C26.5197 45.3909 26.6533 45.0569 26.8871 44.7897C27.0207 44.6227 27.3213 44.4223 27.7221 44.1551C27.4883 43.8211 27.3547 43.6207 27.2879 43.4537ZM28.8577 46.4263C29.0581 46.2927 29.1917 46.1591 29.2919 46.0255L28.0895 44.5559C27.7555 44.7897 27.5217 44.9567 27.4215 45.0903C27.2545 45.2573 27.1877 45.4911 27.1877 45.7583C27.1877 46.0589 27.2879 46.2593 27.4883 46.4263C27.6887 46.5933 27.9225 46.6601 28.1563 46.6601C28.4235 46.6267 28.6573 46.5599 28.8577 46.4263ZM28.7909 43.3868C28.9245 43.2198 28.9913 43.0529 28.9913 42.8524C28.9913 42.6854 28.9245 42.5518 28.8243 42.4516C28.7241 42.3514 28.5905 42.2846 28.3901 42.2846C28.1229 42.2846 27.9225 42.3848 27.8223 42.5518C27.7555 42.652 27.7555 42.7522 27.7555 42.8524C27.7555 42.9861 27.7889 43.1531 27.8891 43.2867C27.9559 43.4203 28.1229 43.5873 28.2899 43.8211C28.5571 43.6207 28.7241 43.487 28.7909 43.3868Z" fill="#AC1931"/>
<path id="Vector_7" d="M38.6773 41.7166V42.3512H36.8737V47.0606H36.1389V42.3512H34.3353V41.7166H38.6773Z" fill="#AC1931"/>
<path id="Vector_8" d="M40.9152 41.7166H41.7168L43.654 47.0606H42.8524L42.2846 45.4574H40.1804L39.6126 47.0606H38.8778L40.9152 41.7166ZM42.1176 44.8896L41.2826 42.5182L40.4142 44.8896H42.1176Z" fill="#AC1931"/>
<path id="Vector_9" d="M45.0568 41.7166H45.7916V47.0606H45.0568V41.7166Z" fill="#AC1931"/>
<path id="Vector_10" d="M47.5284 41.7166H48.2632V46.426H50.9352V47.0606H47.5284V41.7166Z" fill="#AC1931"/>
<path id="Vector_11" d="M56.6466 42.485C57.014 42.9526 57.181 43.5538 57.181 44.2886C57.181 45.0902 56.9806 45.7582 56.5798 46.2926C56.1122 46.9272 55.4108 47.2278 54.5424 47.2278C53.7074 47.2278 53.0728 46.9606 52.6052 46.4262C52.171 45.8918 51.9706 45.2238 51.9706 44.4222C51.9706 43.6874 52.1376 43.0862 52.505 42.5518C52.9726 41.8838 53.6406 41.5498 54.5424 41.5498C55.511 41.5832 56.179 41.8838 56.6466 42.485ZM56.012 45.8918C56.3126 45.4242 56.4462 44.9232 56.4462 44.322C56.4462 43.6874 56.2792 43.1864 55.9452 42.7856C55.6112 42.3848 55.177 42.2178 54.6092 42.2178C54.0414 42.2178 53.6072 42.4182 53.2398 42.7856C52.9058 43.153 52.7054 43.7208 52.7054 44.4556C52.7054 45.0568 52.839 45.5578 53.1396 45.9586C53.4402 46.3594 53.9412 46.5598 54.6092 46.5598C55.2772 46.5932 55.7114 46.3594 56.012 45.8918Z" fill="#AC1931"/>
<path id="Vector_12" d="M58.684 41.7166H61.1223C61.5231 41.7166 61.8571 41.7834 62.1243 41.8836C62.6253 42.1174 62.8591 42.5182 62.8591 43.1528C62.8591 43.4868 62.7923 43.7206 62.6587 43.9544C62.5251 44.1548 62.3247 44.3218 62.0909 44.4554C62.2913 44.5556 62.4583 44.6558 62.5585 44.7894C62.6587 44.923 62.7255 45.1568 62.7255 45.4574L62.7589 46.1588C62.7589 46.3592 62.7923 46.5262 62.8257 46.6264C62.8591 46.7934 62.9593 46.8936 63.0595 46.9604V47.094H62.1577C62.1243 47.0606 62.1243 46.9938 62.0909 46.927C62.0909 46.8602 62.0575 46.7266 62.0575 46.4928L62.0241 45.591C62.0241 45.257 61.8905 45.0232 61.6567 44.8896C61.5231 44.8228 61.3227 44.7894 61.0221 44.7894H59.4188V47.094H58.684V41.7166ZM61.0555 44.1548C61.3895 44.1548 61.6567 44.088 61.8237 43.9544C62.0241 43.8208 62.1243 43.587 62.1243 43.2196C62.1243 42.8522 61.9907 42.585 61.7235 42.4514C61.5899 42.3846 61.3895 42.3512 61.1557 42.3512H59.4188V44.1882H61.0555V44.1548Z" fill="#AC1931"/>
</g>
<g id="Group_4">
<path id="Vector_13" d="M21.8437 19.6727C23.6473 17.0675 26.2525 15.4309 28.9579 14.1951C27.7889 12.7923 27.7889 12.9259 26.6533 11.4562C23.5137 7.44823 25.7181 1.67001 30.4943 0.233801C31.1289 0.0334004 31.8303 0 32.4983 0C42.4182 0 62.5919 0 62.9926 0V5.54442L61.8236 5.04342C61.8236 3.37341 61.0888 1.63661 58.4502 1.0688H50.2004C50.2004 10.187 50.2004 28.5237 50.2004 28.5237C48.2298 28.1229 45.0902 23.9479 45.0902 23.9479V1.1022C45.0902 1.1022 37.1075 1.13561 33.7675 1.13561C33.0995 1.13561 32.2979 1.1356 32.0307 1.2024C28.6573 1.63661 27.3213 5.54442 29.2251 8.24983C30.2605 9.71944 31.5631 10.7882 32.6987 12.1576C37.9425 9.08484 38.7775 5.31062 35.4709 2.13761C35.4709 2.13761 37.9759 1.93721 38.9111 2.43821C42.1176 4.14162 41.6834 7.51503 38.5437 9.91984C37.1075 11.022 35.1369 12.0574 33.4335 13.0261L45.992 27.2879C47.161 28.5571 48.3968 30.0935 50.334 30.0935C52.2044 30.0935 52.8724 29.5591 53.7742 28.4903C53.9412 28.3233 54.342 27.5217 54.4422 27.2211C54.5758 28.2899 54.1082 30.1937 52.5384 31.4629C50.8016 32.8657 49.3654 32.8991 47.662 32.5317C44.9566 31.9305 42.6854 29.8931 41.0154 27.7555L30.7281 16.1657L29.6927 14.9967C29.6927 14.9967 28.6573 15.4309 27.6887 16.1657C25.1169 18.2365 24.4489 20.2739 24.3487 23.5137C23.4803 22.1109 22.7789 21.0755 21.8437 19.6727Z" fill="#AC1931"/>
<path id="Vector_14" d="M16.1657 15.4309C18.7375 16.7335 20.1069 19.0381 21.4763 21.0755C22.9793 23.3467 24.5491 25.8517 26.1523 28.0227C29.0915 31.9973 35.1703 32.2645 38.7108 28.6573C38.9446 28.4235 39.2452 27.9893 39.2452 27.9893L40.4142 29.2919C37.976 31.4295 34.9699 32.5651 32.2645 32.6987C32.2645 32.6987 30.9619 32.8657 28.7575 32.4983C26.1857 32.0641 22.7121 30.2939 20.7749 27.8891C19.2385 25.9519 15.4309 20.0067 15.4309 20.0067C15.4309 20.0067 14.3287 18.0027 13.0929 17.2679C11.5898 16.3661 10.7214 16.4329 8.01603 16.4329V26.7201C8.21643 28.3901 9.15164 29.5925 11.0888 30.1269V31.1957H0V30.1269C0 30.1269 2.80561 29.5257 3.07281 26.7201C3.07281 26.7201 3.07281 26.4863 3.07281 25.2505C3.07281 5.11022 3.07281 5.11022 3.07281 5.04342C3.07281 5.04342 3.34001 1.87041 0 1.0688L0.400802 0C0.400802 0 8.95124 0 14.5959 0C15.4977 0 17.2345 0.267202 18.1029 0.634603C21.2425 2.03741 22.6787 4.60922 22.7121 8.14963C22.6119 13.5271 17.6019 14.9967 16.1657 15.4309ZM8.04943 15.4309C8.55043 15.4309 10.6546 15.4309 11.1222 15.4309C12.4248 15.4309 15.2973 15.1971 17.3347 11.7902C18.8377 9.28524 18.6039 5.94522 16.3995 3.47361C13.7609 0.467602 10.7882 1.169 8.04943 1.1022V15.4309Z" fill="#AC1931"/>
</g>
<g id="Group_5">
<path id="Vector_15" d="M63.0595 38.7773H0V39.1781H63.0595V38.7773Z" fill="#AC1931"/>
<path id="Vector_16" d="M63.0595 49.5994H0V50.0002H63.0595V49.5994Z" fill="#AC1931"/>
</g>
</g>
</g>
</svg>
