<svg width="50" height="50" viewBox="0 0 50 50" fill="none" xmlns="http://www.w3.org/2000/svg">
<g id="icons8-shipped 1">
<path id="Vector" d="M2.08333 10.4167V37.5H6.24999C6.24999 40.9521 9.04791 43.75 12.5 43.75C15.9521 43.75 18.75 40.9521 18.75 37.5H31.25C31.25 40.9521 34.0479 43.75 37.5 43.75C40.9521 43.75 43.75 40.9521 43.75 37.5H47.9167V27.0833L42.8182 16.8864C42.1119 15.4739 40.6701 14.5833 39.091 14.5833H33.3333V10.4167H2.08333ZM6.24999 14.5833H29.1667V33.3333H17.1265C15.9826 32.0639 14.3436 31.25 12.5 31.25C10.6564 31.25 9.01744 32.0639 7.87353 33.3333H6.24999V14.5833ZM21.9645 17.7938L16.6667 23.0957L13.5579 19.987L10.612 22.9329L16.6667 28.9876L24.9145 20.7438L21.9645 17.7938ZM33.3333 18.75H39.091L43.75 28.068V33.3333H42.1265C40.9826 32.0639 39.3436 31.25 37.5 31.25C35.8915 31.25 34.4409 31.8755 33.3333 32.8735V18.75ZM12.5 34.8958C13.9354 34.8958 15.1042 36.0646 15.1042 37.5C15.1042 38.9354 13.9354 40.1042 12.5 40.1042C11.0646 40.1042 9.89583 38.9354 9.89583 37.5C9.89583 36.0646 11.0646 34.8958 12.5 34.8958ZM37.5 34.8958C38.9354 34.8958 40.1042 36.0646 40.1042 37.5C40.1042 38.9354 38.9354 40.1042 37.5 40.1042C36.0646 40.1042 34.8958 38.9354 34.8958 37.5C34.8958 36.0646 36.0646 34.8958 37.5 34.8958Z" fill="#AC1931"/>
</g>
</svg>
