<svg width="51" height="50" viewBox="0 0 51 50" fill="none" xmlns="http://www.w3.org/2000/svg">
<g id="icons8-card_payment 1">
<path id="Vector" d="M21.3333 8.33334C19.0312 8.33334 17.1666 10.1979 17.1666 12.5V13.8753L5.0776 22.1029C4.18644 22.671 3.40749 23.4715 3.01054 24.4222C2.61358 25.3729 2.58329 26.2662 2.58329 27.1484L2.56702 39.5833C2.56702 41.8606 4.45647 43.75 6.73368 43.75H18.3629C21.2942 43.75 24.0322 42.3182 25.7278 39.9414L25.736 39.9333L32.7957 31.9824L32.8567 31.897C33.0064 31.6901 33.1324 31.4721 33.2474 31.25H42.1666C44.4687 31.25 46.3333 29.3854 46.3333 27.0833V20.8333V16.6667V12.5C46.3333 10.1979 44.4687 8.33334 42.1666 8.33334H21.3333ZM21.3333 12.5H42.1666V16.6667H21.3333V12.5ZM17.1666 18.9128V20.8333V27.0833C17.1666 28.3547 17.7441 29.4809 18.6437 30.2409L20.3201 33.0363L29.0726 27.7995L29.4632 28.3C29.729 28.6392 29.7301 29.0855 29.4835 29.4393L22.5174 37.2844L22.436 37.4024C21.5272 38.7662 20.0018 39.5833 18.3629 39.5833H6.73368L6.74996 27.1484C6.74996 26.4369 6.81739 26.1116 6.85169 26.0295C6.88598 25.9473 6.87338 25.9004 7.31555 25.6185L7.34404 25.6022L17.1666 18.9128ZM21.3333 20.8333H42.1666V27.0833H33.4915C33.3125 26.6063 33.068 26.1482 32.7428 25.7324V25.7284L30.0898 22.3348L22.1552 27.0833H21.3333V20.8333Z" fill="#AC1931"/>
</g>
</svg>
