<svg width="40" height="40" viewBox="0 0 40 40" fill="none" xmlns="http://www.w3.org/2000/svg">
<circle cx="20" cy="20" r="19" stroke="white" stroke-width="2"/>
<path d="M28.3027 10.9844C28.0138 10.9969 27.7486 11.08 27.5156 11.1719C27.3004 11.2566 26.5275 11.5815 25.2969 12.0976C24.0662 12.6138 22.4355 13.2982 20.6973 14.0293C17.2208 15.4914 13.3142 17.1361 11.3125 17.9785C11.2438 18.0071 10.9646 18.0926 10.6562 18.3281C10.3472 18.5642 10.0039 19.0765 10.0039 19.6367C10.0039 20.0887 10.2295 20.549 10.502 20.8125C10.7744 21.076 11.0505 21.1992 11.2812 21.291V21.2891C12.0613 21.5998 14.3907 22.5319 14.9453 22.7539C15.142 23.3434 15.9866 25.8673 16.1875 26.5019H16.1855C16.3276 26.9512 16.466 27.2439 16.6582 27.4883C16.7543 27.6105 16.869 27.7212 17.0098 27.8086C17.0638 27.8421 17.1235 27.8681 17.1836 27.8926C17.192 27.8961 17.2006 27.897 17.209 27.9004L17.1855 27.8945C17.203 27.9015 17.2186 27.9118 17.2363 27.918C17.2652 27.9279 17.2853 27.9276 17.3242 27.9355C17.4612 27.9777 17.598 28.0058 17.7246 28.0058C18.2682 28.0058 18.6016 27.7109 18.6016 27.7109L18.623 27.6953L20.9707 25.709L23.8457 28.3691C23.8982 28.4433 24.3096 29 25.2617 29C25.8298 29 26.279 28.7188 26.5664 28.4238C26.8538 28.1289 27.0328 27.827 27.1133 27.418L27.1152 27.416C27.1794 27.0858 29.9316 13.2656 29.9316 13.2656L29.9258 13.2891C30.0114 12.9067 30.0367 12.537 29.9355 12.1601C29.8344 11.7833 29.5613 11.4156 29.2324 11.2226C28.9036 11.0297 28.5917 10.9718 28.3027 10.9844ZM27.9082 13.1738C27.7994 13.7198 25.334 26.1059 25.1816 26.8828L21.0293 23.041L18.2227 25.4141L19 22.375C19 22.375 24.3625 16.9469 24.6855 16.6309C24.9455 16.3779 25 16.2892 25 16.2012C25 16.0842 24.9398 16 24.8008 16C24.6758 16 24.506 16.1198 24.416 16.1758C23.2724 16.8888 18.4013 19.6647 16.0059 21.0273C15.8617 20.9695 13.6974 20.1004 12.5312 19.6348C14.6055 18.7618 18.1612 17.2658 21.4727 15.873C23.2106 15.1421 24.8408 14.4571 26.0703 13.9414C27.1082 13.5061 27.6495 13.2807 27.9082 13.1738ZM25.1523 27.0254H25.1543C25.1543 27.0256 25.1524 27.0309 25.1523 27.0312C25.1536 27.0248 25.1514 27.0304 25.1523 27.0254Z" fill="white"/>
</svg>
