<svg width="50" height="50" viewBox="0 0 50 50" fill="none" xmlns="http://www.w3.org/2000/svg">
<g id="icons8-replace 1">
<path id="Vector" d="M29.1667 4.16666V18.75L35.673 12.2436C39.3201 15.2975 41.6667 19.8554 41.6667 25V27.0833H45.8334V25C45.8334 18.7289 43.0243 13.1171 38.6231 9.29361L43.75 4.16666H29.1667ZM16.3859 5.91633L12.7808 7.99966L14.8641 11.6089L18.4693 9.52554L16.3859 5.91633ZM7.9997 12.7808L5.91636 16.3859L9.52557 18.4692L11.6089 14.8641L7.9997 12.7808ZM4.16669 22.9167V25C4.16669 31.2711 6.97573 36.8829 11.377 40.7064L6.25002 45.8333H20.8334V31.25L14.327 37.7563C10.68 34.7025 8.33335 30.1445 8.33335 25V22.9167H4.16669ZM40.4745 31.5267L38.3911 35.1359L42.0003 37.2192L44.0837 33.61L40.4745 31.5267ZM35.1359 38.3911L31.5308 40.4744L33.6141 44.0837L37.2193 42.0003L35.1359 38.3911Z" fill="#AC1931"/>
</g>
</svg>
